<?xml version="1.0" encoding="UTF-8" standalone="no"?>
<svg width="158px" height="66px" viewBox="0 0 158 66" version="1.1" xmlns="http://www.w3.org/2000/svg" xmlns:xlink="http://www.w3.org/1999/xlink" xmlns:sketch="http://www.bohemiancoding.com/sketch/ns">
    <!-- Generator: Sketch 3.0.4 (8053) - http://www.bohemiancoding.com/sketch -->
    <title>Imported Layers</title>
    <desc>Created with Sketch.</desc>
    <defs></defs>
    <g id="Home-Page" stroke="none" stroke-width="1" fill="none" fill-rule="evenodd" sketch:type="MSPage">
        <g id="Medium-Home-Page" sketch:type="MSArtboardGroup" transform="translate(-643.000000, -38.000000)" fill="#000000">
            <g id="Imported-Layers" sketch:type="MSLayerGroup" transform="translate(643.000000, 39.000000)">
                <path d="M15.8956316,-0.270791667 L57.7129649,-0.270791667 L54.8287719,9.56285417 L21.4228596,53.1407708 L42.3315263,53.1407708 C42.8110702,53.1407708 43.251807,53.0877292 43.6537368,52.98025 C44.0542807,52.8727708 44.4409649,52.7108542 44.8151754,52.4958958 C44.8678421,52.4958958 44.9343684,52.4819375 45.0147544,52.4554167 C45.0951404,52.4288958 45.1616667,52.3884167 45.2157193,52.3339792 C45.3224386,52.2795417 45.4152982,52.1999792 45.4956842,52.0925 C45.5760702,51.9850208 45.6689298,51.8775417 45.7756491,51.7700625 C45.8837544,51.6611875 45.9904737,51.5537083 46.097193,51.4462292 C46.2039123,51.33875 46.2829123,51.2312708 46.3369649,51.1237917 C46.4436842,50.9632708 46.5365439,50.8013542 46.6169298,50.6394375 C46.6973158,50.4789167 46.7638421,50.3435208 46.8178947,50.2360417 L44.1734737,62.1773958 C44.1734737,62.4467917 44.1055614,62.6882708 43.9725088,62.9032292 C43.8394561,63.1195833 43.6925439,63.2787083 43.5331579,63.3875833 C43.4264386,63.440625 43.3460526,63.4950625 43.292,63.5481042 C43.2393333,63.6025417 43.1852807,63.6290625 43.132614,63.6290625 C43.0785614,63.6821042 43.0245088,63.7225833 42.9718421,63.7491042 C42.9177895,63.7770208 42.8651228,63.8175 42.8124561,63.8705417 C42.4922982,64.0855 42.1305614,64.2083333 41.7300175,64.2334583 C41.3294737,64.261375 40.7820175,64.2739375 40.0890351,64.2739375 L4.27847368,64.2739375 C3.42333333,64.2739375 2.71649123,64.261375 2.1565614,64.2348542 C1.59524561,64.2097292 1.2085614,64.0868958 0.993736842,63.8719375 C0.941070175,63.8188958 0.87454386,63.7518958 0.794157895,63.6709375 C0.712385965,63.5885833 0.645859649,63.4950625 0.594578947,63.3875833 C0.541912281,63.2270625 0.461526316,63.0121042 0.354807018,62.7427083 C0.246701754,62.4747083 0.194035088,62.1773958 0.194035088,61.8549583 L0.194035088,61.6525625 L0.194035088,61.531125 L2.83707018,53.1407708 L36.5645263,9.56285417 L18.3792807,9.56285417 C17.6835263,9.56285417 17.0695439,9.49585417 16.5345614,9.36185417 C16.0009649,9.22785417 15.5740877,9.02545833 15.2553158,8.7560625 C15.1998772,8.64858333 15.1472105,8.58158333 15.0931579,8.5550625 C15.0391053,8.5299375 14.9864386,8.4880625 14.9337719,8.433625 C14.8797193,8.38058333 14.8256667,8.32754167 14.773,8.27310417 C14.7189474,8.21866667 14.6662807,8.1111875 14.613614,7.95066667 C14.613614,7.897625 14.5997544,7.81666667 14.5734211,7.7091875 C14.5470877,7.6003125 14.5068947,7.46770833 14.4528421,7.30579167 L15.8956316,-0.270791667" id="Fill-1" sketch:type="MSShapeGroup"></path>
                <path d="M84.3622982,61.2491667 C81.9049825,62.2988333 79.4213333,63.0916667 76.9113509,63.6290625 C75.683386,63.8440208 74.4817544,64.0059375 73.3064561,64.1134167 C72.1311579,64.2208958 70.9572456,64.2739375 69.7819474,64.2739375 C65.5630702,64.2739375 61.7572105,63.6151042 58.3657544,62.2974375 C54.9742982,60.978375 52.5835088,59.3229167 51.1961579,57.3310625 C50.3410175,55.9324375 49.6729825,54.0885417 49.1934386,51.8007708 C48.7125088,49.513 48.4727368,46.9697917 48.4727368,44.16975 C48.4727368,41.7479792 48.6584561,39.1768542 49.0326667,36.4591667 C49.4068772,33.7414792 49.9404737,31.0098333 50.6362281,28.2642292 C51.5426491,24.87375 52.7442807,21.548875 54.2397368,18.2923958 C55.735193,15.0359167 57.552193,12.00975 59.6879649,9.20970833 C61.0226491,7.44258333 62.5444386,5.95741667 64.2533333,4.75141667 C65.963614,3.54541667 67.6988421,2.59485417 69.4617895,1.89972917 C71.5975614,1.0426875 73.668193,0.466208333 75.6709123,0.1716875 C77.6736316,-0.1214375 79.3686667,-0.270791667 80.7574035,-0.270791667 L81.1163684,-0.270791667 L81.4781053,-0.270791667 L81.4781053,10.8232917 C81.1565614,10.8777292 80.8364035,10.90425 80.5162456,10.90425 C80.1947018,10.90425 79.8759298,10.9307708 79.5557719,10.9852083 C79.1288947,10.9852083 78.7144912,10.9991667 78.3139474,11.0256875 C77.9120175,11.0522083 77.497614,11.0926875 77.0721228,11.147125 C76.1629298,11.3076458 75.2287895,11.6845208 74.2683158,12.2763542 C73.3064561,12.8681875 72.3182632,13.8899375 71.3037368,15.3416042 C70.0217193,17.0654583 68.8727544,19.1661875 67.8582281,21.6423958 C66.8437018,24.12 65.963614,26.6771667 65.2165789,29.3138958 C64.3600526,32.27725 63.6934035,35.1303333 63.2124737,37.8759375 C62.7315439,40.6229375 62.4640526,42.8311458 62.411386,44.4977708 L62.411386,44.6610833 L62.411386,44.8216042 L62.411386,44.9835208 L62.411386,45.1440417 C62.4640526,48.0529583 63.4785789,50.1522917 65.4563509,51.4448333 C67.4313509,52.737375 69.6197895,53.3836458 72.0244386,53.3836458 L72.2254035,53.3836458 L72.4249825,53.3836458 C74.1879298,53.3292083 75.8829649,52.9523333 77.5128596,52.2530208 C79.1413684,51.5523125 80.3291404,50.610125 81.0775614,49.4250625 C82.5203509,47.4346042 83.8938421,44.8913958 85.2035789,41.7940417 C86.5105439,38.6980833 87.5915965,35.4806875 88.4481228,32.1418542 C88.9817193,30.0425208 89.4085965,27.9697083 89.7287544,25.9234167 C90.0502982,23.877125 90.2096842,21.9662292 90.2096842,20.1893333 C90.2096842,19.0042708 90.1292982,17.9015625 89.9685263,16.8784167 C89.8091404,15.8552708 89.5416491,14.9396042 89.1688246,14.1314167 C88.6878947,12.94775 87.7523684,12.1004792 86.3650175,11.5896042 C84.9762807,11.080125 83.3477719,10.8232917 81.4781053,10.8232917 L81.4781053,-0.270791667 C82.6534035,-0.216354167 83.8675088,-0.149354167 85.121807,-0.0683958333 C86.3761053,0.0139583333 87.6456491,0.134 88.9276667,0.294520833 C92.667,0.886354167 96.0986491,2.25845833 99.222614,4.4094375 C102.346579,6.56041667 104.094281,10.5413333 104.469877,16.3507917 L104.469877,16.6732292 L104.469877,16.9956667 L104.469877,17.3181042 L104.469877,17.6419375 C104.469877,19.8473542 104.255053,22.604125 103.828175,25.91225 C103.399912,29.220375 102.734649,32.6485417 101.826842,36.1981458 C100.756877,40.4470625 99.3556667,44.4810208 97.6204386,48.3000208 C95.8838246,52.1190208 93.7882456,55.02375 91.3309298,57.0128125 C89.1411053,58.7883125 86.8182281,60.2008958 84.3622982,61.2491667" id="Fill-2" sketch:type="MSShapeGroup"></path>
                <path d="M111.517509,0.537395833 C111.435737,0.429916667 111.369211,0.350354167 111.31793,0.294520833 C111.211211,0.187041667 111.104491,0.106083333 110.996386,0.0530416667 C110.889667,-0.00139583333 110.756614,-0.0279166667 110.597228,-0.0279166667 C110.490509,-0.0809583333 110.382404,-0.1214375 110.275684,-0.149354167 C110.168965,-0.175875 110.034526,-0.216354167 109.873754,-0.270791667 L123.262175,-0.270791667 C123.797158,-0.270791667 124.278088,-0.175875 124.706351,0.0125625 C125.133228,0.201 125.533772,0.4564375 125.907982,0.778875 C126.014702,0.8333125 126.122807,0.9003125 126.22814,0.981270833 C126.336246,1.06222917 126.442965,1.18366667 126.549684,1.3441875 C126.656404,1.50470833 126.763123,1.666625 126.869842,1.82854167 C126.976561,1.9890625 127.084667,2.1775 127.191386,2.39245833 L138.654702,32.0022708 L145.229719,3.03733333 C145.229719,2.4999375 145.18814,2.07141667 145.107754,1.74758333 C145.027368,1.42514583 144.934509,1.15575 144.827789,0.940791667 C144.72107,0.672791667 144.532579,0.482958333 144.266474,0.375479167 C143.998982,0.268 143.706544,0.160520833 143.385,0.0530416667 C143.225614,-0.00139583333 143.052368,-0.0544375 142.865263,-0.108875 C142.676772,-0.161916667 142.503526,-0.216354167 142.345526,-0.270791667 L154.522614,-0.270791667 C155.215596,-0.270791667 155.709,-0.216354167 156.002825,-0.108875 C156.296649,-0.00139583333 156.576614,0.1884375 156.845491,0.4564375 C156.898158,0.510875 156.950825,0.5653125 157.004877,0.618354167 C157.057544,0.672791667 157.111596,0.727229167 157.164263,0.778875 C157.218316,0.8333125 157.258509,0.9003125 157.284842,0.981270833 C157.311175,1.06222917 157.351368,1.12922917 157.405421,1.18227083 C157.458088,1.3441875 157.51214,1.49214583 157.564807,1.62614583 C157.61886,1.76154167 157.671526,1.9095 157.726965,2.07002083 C157.726965,2.1775 157.739439,2.27241667 157.765772,2.35197917 C157.792105,2.4329375 157.805965,2.52645833 157.805965,2.6339375 L144.017,64.2739375 L138.083684,64.2739375 C137.709474,64.2739375 137.335263,64.2083333 136.961053,64.0743333 C136.586842,63.9403333 136.240351,63.7909792 135.918807,63.6290625 C135.759421,63.5201875 135.626368,63.440625 135.519649,63.3875833 C135.41293,63.3331458 135.304825,63.2787083 135.198105,63.2256667 C134.984667,63.0651458 134.755982,62.8767083 134.516211,62.6603542 C134.276439,62.4453958 134.04914,62.2304375 133.835702,62.0140833 C133.780263,61.9624375 133.727596,61.8954375 133.67493,61.8144792 C133.620877,61.732125 133.566825,61.665125 133.515544,61.6120833 L120.608053,25.7894167 L112.590246,60.1604167 C112.590246,60.6992083 112.629053,61.1696042 112.710825,61.5716042 C112.791211,61.975 112.938123,62.3909583 113.151561,62.8222708 C113.204228,62.9841875 113.35114,63.1321458 113.592298,63.2661458 C113.83207,63.4015417 114.085702,63.5215833 114.353193,63.6290625 C114.78007,63.8440208 115.127947,64.0059375 115.395439,64.1134167 C115.661544,64.2208958 115.661544,64.2739375 115.395439,64.2739375 L101.695175,64.5168125 C101.588456,64.462375 101.454018,64.4079375 101.294632,64.3562917 C101.13386,64.3004583 100.974474,64.2739375 100.815088,64.2739375 C100.65293,64.2208958 100.506018,64.1538958 100.372965,64.0729375 C100.239912,63.9919792 100.093,63.8984583 99.933614,63.7895833 C99.8268947,63.6821042 99.7201754,63.574625 99.6134561,63.4671458 C99.5053509,63.3596667 99.4249649,63.2787083 99.3722982,63.2256667 C99.3182456,63.172625 99.2780526,63.0916667 99.2517193,62.9841875 C99.225386,62.8767083 99.2129123,62.7678333 99.2129123,62.6603542 C99.104807,62.4453958 99.025807,62.2164792 98.9717544,61.975 C98.9190877,61.7335208 98.8913684,61.4780833 98.8913684,61.2086875 L111.959632,3.2788125 C112.010912,3.06385417 112.038632,2.8768125 112.038632,2.71489583 L112.038632,2.2319375 L112.038632,2.07141667 L112.038632,1.90810417 C111.984579,1.800625 111.944386,1.666625 111.919439,1.50470833 C111.891719,1.34558333 111.825193,1.15575 111.718474,0.940791667 C111.664421,0.780270833 111.597895,0.644875 111.517509,0.537395833" id="Fill-3" sketch:type="MSShapeGroup"></path>
            </g>
        </g>
    </g>
</svg>